<?xml version="1.0" encoding="UTF-8"?>
<svg width="778px" height="516px" viewBox="0 0 778 516" version="1.1" xmlns="http://www.w3.org/2000/svg" xmlns:xlink="http://www.w3.org/1999/xlink">
    <title>Wave-01</title>
    <g id="Page-1" stroke="none" stroke-width="1" fill="none" fill-rule="evenodd" opacity="0.3">
        <g id="001.-Website---Home" transform="translate(-662.000000, -7922.000000)" fill="#FFFFFF" fill-rule="nonzero">
            <g id="Group-39" transform="translate(0.000000, 8018.000000)">
                <g id="Wave-01">
                    <g transform="translate(662.000000, -96.000000)">
                        <path d="M773.415329,201.905062 C766.196588,170.043388 750.536059,144.089175 726.870241,124.770989 C698.458453,101.569964 660.948531,93.4768067 624.674461,85.649261 C609.413077,82.3573823 593.641557,78.9513652 579.127233,74.4850346 C552.921408,66.4174783 528.189428,54.265475 504.270676,42.5156228 C472.429878,26.8722652 439.504776,10.6976842 403.258454,4.40087282 C394.080279,2.80826915 384.034446,1.20819849 372.710071,0.29402478 C323.341094,-3.70508517 279.667921,33.5616273 275.409674,83.3440925 C272.292296,119.792636 263.954031,172.308021 227.679961,207.396504 C219.889184,214.936037 209.355628,222.094754 197.050469,228.392632 C196.274593,228.57504 195.496583,228.759581 194.728178,228.938789 C190.200989,229.993769 185.624708,231.063683 181.067638,232.317072 C175.130639,233.496857 169.12427,234.721445 163.183003,236.34605 C157.419962,237.354094 151.633443,238.491211 145.933369,240.060347 C140.41126,240.909324 134.939345,242.057375 129.541789,243.499432 C124.156626,244.275856 118.82164,245.367199 113.564293,246.767843 C108.182076,247.50497 102.851717,248.580574 97.6049404,249.988252 C92.2845767,250.692693 87.0163715,251.746395 81.8344874,253.142525 C69.561346,254.788464 57.5326003,257.867 46.5209244,264.515827 C21.910608,279.357016 6.89682082,301.364388 1.89151362,329.926716 C-2.14474904,352.967733 0.285332947,380.356676 9.11772579,411.347912 C11.0387392,418.104477 12.6908108,423.557517 14.318336,428.511336 C19.3652652,443.858147 24.6256403,455.6144 30.8710684,465.515637 C38.6949292,477.912985 48.042794,487.323534 59.4493448,494.284908 C80.8729134,506.848663 113.984782,516 144.980333,516 C158.213981,516 171.073032,514.330593 182.466776,510.544826 C228.151677,495.354822 260.761947,461.73947 292.299651,429.233501 C316.739211,404.036655 342.019748,377.982171 373.290644,360.524334 C404.474029,343.060096 440.409786,334.989339 480.120336,336.547808 C511.645233,337.780929 544.794454,345.044183 578.661921,358.134895 C584.771811,360.496599 590.494296,362.605492 596.164488,364.58638 C643.920882,381.272983 683.548187,386.473213 713.950359,380.031329 C731.793372,376.254095 746.320502,364.182095 757.132606,344.14601 C766.055713,327.611947 770.431355,308.304428 773.247774,293.323499 C779.526287,259.893756 779.584984,229.130798 773.415329,201.905062 Z M283.619872,86.4098279 C286.089235,64.141217 297.038894,43.6768736 314.198137,29.2606374 C331.474741,14.640181 353.859752,7.4881158 376.417627,9.38135944 C387.174235,10.254998 396.760092,11.7739984 405.514577,13.2855319 C440.10029,19.2729963 471.625187,34.6038067 502.113805,49.4311282 C524.924772,60.5249514 548.514817,71.9953247 573.494395,79.6852643 C587.342767,83.9521194 602.355487,87.2226638 616.873012,90.3886703 C651.434178,97.9260699 687.171432,105.719481 714.282267,127.638315 C736.679149,145.741515 751.642777,170.17246 758.753728,200.250589 C764.702466,225.4069 765.2094,254.54632 760.260656,286.861347 C757.775078,303.100998 754.063254,321.814357 745.376004,337.475849 C734.938498,356.294814 719.933248,368.046799 701.979243,371.462417 C672.071199,377.143734 634.812076,371.995774 588.063147,355.710254 C582.590393,353.805104 577.031194,351.77088 571.066447,349.49238 C537.864932,336.812353 505.538545,329.95125 474.973087,329.097879 C436.774802,328.031165 401.825164,336.289663 371.131639,353.646163 C341.266283,370.420237 316.976136,395.118928 293.482142,419.004783 C262.992457,450.005619 231.466492,482.062501 187.68126,496.554875 C151.502174,508.510603 99.5953237,498.374688 70.3318859,481.673151 C59.5934208,475.017923 50.8848266,465.951923 43.7045053,453.95886 C38.0577931,444.528044 33.3619825,433.291281 28.9265759,418.598365 C27.4900848,413.826954 26.0535936,408.616058 24.3993876,402.199774 C7.05477082,335.338155 19.7622746,288.299277 62.1718477,262.389866 C68.3577001,258.662554 75.0410346,255.830693 82.0223198,253.978828 C83.9604089,253.71855 85.9045456,253.489207 87.85473,253.290798 C84.0633462,254.817325 80.4093818,256.664836 76.9327014,258.813175 C36.277654,284.001488 23.1966197,329.305888 38.0311123,393.464455 C39.4398555,399.611927 40.6703713,404.598814 41.9040888,409.162215 C45.821889,423.532983 49.8773618,434.049714 55.0790393,443.261854 C61.7417542,455.079976 69.9999774,463.990236 80.3435675,470.511058 C99.949644,481.369137 129.986823,489.21055 158.144611,489.21055 C170.631199,489.21055 182.749592,487.668082 193.421888,484.163927 C235.780234,470.224112 266.439609,439.529423 296.089384,409.848112 C318.489468,387.421522 341.653688,364.232231 369.7944,348.244325 C399.890277,331.142769 433.543231,322.784 469.777813,323.344025 C499.195999,323.812312 530.514921,330.234996 562.870123,342.438202 C568.762298,344.660166 574.17422,346.62292 579.412183,348.442733 C624.814269,364.198096 661.095809,369.467662 690.330431,364.556512 C709.154229,361.394772 724.637597,350.008669 735.10712,331.630258 C743.817849,316.345316 746.912815,298.09811 748.958694,280.658407 C752.693998,248.846868 751.652382,221.882477 745.787955,198.2377 C738.674869,169.5623 724.198965,146.331408 702.755119,129.191451 C676.633606,108.301995 642.466247,100.762462 609.424817,93.4725398 C595.681033,90.4409393 581.469802,87.3058675 568.355684,83.2683559 C544.731488,75.9955013 522.351681,65.240893 500.709331,54.8286999 C471.467237,40.7662122 441.221948,26.2258367 408.047113,20.5071841 C399.678966,19.0681872 390.518933,17.6270569 380.254318,16.784353 C336.071009,13.1745936 296.510939,45.0224001 290.148116,89.2878217 C285.468314,121.830059 275.42675,168.847602 242.395991,201.323703 C233.797322,209.79341 221.762173,217.857766 207.739842,224.712469 C218.879585,218.70367 228.444098,211.982307 235.628688,204.968664 C250.516542,190.450689 261.722454,172.466962 269.859013,149.988102 C276.300811,132.19425 280.803453,111.398665 283.619872,86.4098279 Z M163.376171,237.172753 C165.297185,236.836382 167.214641,236.510324 169.128539,236.194576 C168.520218,236.429253 167.913676,236.670331 167.308913,236.917808 C165.166627,237.25489 163.032167,237.574904 160.905534,237.877851 C161.723032,237.63464 162.550135,237.397829 163.376171,237.172753 Z M298.351911,92.3994258 C301.84585,72.9004865 312.304627,55.3329427 327.783971,42.9625758 C343.62512,30.2815286 363.731696,24.1615579 383.955471,25.8652874 C393.658723,26.6631893 402.349174,28.0296497 410.298968,29.3854429 C441.826,34.7936817 470.679622,48.4945535 498.582342,61.7431386 C519.109438,71.4897023 540.335569,81.5680141 562.722846,88.4589851 C575.167811,92.2938211 588.608502,95.2998205 601.608426,98.201282 C632.94229,105.202125 665.348719,112.441911 690.174616,132.058777 C726.902258,161.060591 741.456069,206.238053 735.977979,274.245323 C735.026011,286.060245 733.253342,308.051616 723.371862,324.935562 C713.270533,342.202458 697.300508,353.225878 678.406274,355.976933 C650.170579,360.082714 615.147302,354.71181 571.32365,339.562341 C566.30767,337.828931 561.062236,335.935514 555.275717,333.790353 C523.595004,322.008499 493.092512,315.987967 464.617757,315.895163 L463.945403,315.895163 C430.151676,315.727866 396.917511,324.517418 367.628991,341.368288 C340.95572,356.65963 318.818174,378.458992 297.405278,399.54259 C268.766169,427.745436 239.149479,456.915791 198.640642,470.168643 C165.763564,480.881649 118.191801,472.333005 91.2197052,457.8929 C81.549537,451.68356 73.9305843,443.127448 67.9263502,431.736012 C63.325523,423.006026 59.8090012,412.999184 56.5262027,399.287646 C55.5027294,394.971722 54.4867268,390.228046 53.3245137,384.353653 C41.1580953,323.677906 54.3661298,280.718143 92.5910953,256.668014 C95.1844468,255.037785 97.8833758,253.581709 100.670024,252.309421 C102.747564,252.185682 104.821547,252.069411 106.891973,251.960606 C107.735085,251.914737 108.593137,251.864602 109.442652,251.817666 C108.740415,252.234751 108.036043,252.65077 107.342344,253.097723 C87.0457699,266.080696 73.7053989,284.664984 67.6915596,308.334295 C62.907169,327.161794 62.6585044,349.784659 66.9519695,375.572465 C67.8633836,381.171646 68.6712765,385.693445 69.496245,389.805627 C71.3041321,398.692419 74.0511813,410.267331 79.2795395,420.998471 C84.6690494,432.066693 92.0436065,440.716675 101.238857,446.736141 C118.786248,455.789341 145.323981,462.565107 170.781678,462.565107 C182.162011,462.71762 193.4971,461.10404 204.382337,457.781962 C243.442944,445.088068 272.170632,417.292707 299.958091,390.415787 C320.281346,370.756252 341.296166,350.430021 366.301357,335.957915 C394.563423,319.37442 426.676418,310.474596 459.447029,310.143442 C486.743563,309.87783 516.26527,315.441809 547.087931,326.737242 C552.967299,328.890937 557.920312,330.655281 562.675888,332.29482 C605.230604,346.946134 639.262424,352.43651 666.722244,349.077428 C686.037332,346.941221 703.218069,335.837831 713.093373,319.109171 C722.433767,303.572485 723.970578,284.572179 724.681353,267.982647 C726.579955,223.596687 723.065567,168.210774 678.639998,133.606579 C654.800221,115.022292 623.964754,108.03745 594.143155,101.285152 C581.922308,98.5116957 569.287375,95.6550362 557.584135,92.0516771 C536.55971,85.5788579 516.556624,76.2131109 497.206683,67.1545776 C470.536613,54.6580257 442.958331,41.750789 412.842176,36.6060284 C405.281921,35.3259719 397.018362,34.0277812 387.804968,33.2650809 C368.527798,31.6351073 349.342041,37.3083974 334.055012,49.1591162 C319.256368,60.6404928 308.940632,76.9330163 304.894029,95.2155502 C298.016801,126.389194 286.369056,165.931207 257.118425,195.242368 C248.033098,204.372371 234.977678,213.132224 219.938277,220.375211 C232.124973,213.926926 242.63932,206.555934 250.354323,198.881995 C281.513161,167.96543 292.37329,125.736365 298.351911,92.3994258 Z M133.095663,245.49312 C136.169285,245.208308 139.274923,244.903228 142.389099,244.567213 C141.535316,245.049367 140.681532,245.548589 139.827748,246.072346 C136.457437,246.506498 133.05831,246.831846 129.661318,247.127326 C130.796851,246.548456 131.941632,246.003721 133.095663,245.49312 Z M173.803005,235.409475 C176.680256,234.920209 179.56569,234.392186 182.459305,233.825405 C182.321632,233.885141 182.186094,233.949144 182.048422,234.00888 C181.596984,234.115551 181.141276,234.246757 180.691973,234.354495 C177.67278,235.077727 174.59489,235.66762 171.507394,236.211644 C172.272598,235.932165 173.035667,235.662286 173.803005,235.405208 L173.803005,235.409475 Z M123.117066,250.888558 C126.99111,250.552544 130.850212,250.133325 134.643146,249.553033 C104.31995,271.487868 91.6337903,306.908099 95.8664232,357.681541 C96.246357,362.239609 96.6028117,366.347524 97.0809306,370.446905 C98.0766559,378.988082 99.6145339,389.029059 103.475771,398.735088 C107.628362,409.188883 113.883395,417.326842 122.127744,422.969758 C138.090298,430.495424 161.031468,435.903663 183.299215,435.903663 C194.144802,436.042555 204.948016,434.525268 215.335315,431.404264 C251.165418,419.934957 278.040395,394.993056 304.031707,370.871457 C322.20236,354.009913 340.992005,336.574476 362.804046,323.677906 C390.819892,307.116108 419.857077,298.118378 449.107708,296.937526 C474.401052,295.908147 502.0423,300.661423 531.299335,311.035215 C535.640825,312.571283 540.709099,314.360162 545.931054,316.143707 C571.420768,324.843825 609.211371,336.121123 643.104451,333.595144 C664.006144,332.042009 681.043399,322.451186 691.077492,306.585952 C700.370928,291.902636 701.049686,273.261813 700.396542,255.304754 C698.795697,211.142803 692.124445,166.371759 654.520607,138.021707 C632.944424,121.736188 605.420571,115.300704 578.805997,109.073229 C568.128364,106.576052 557.086806,103.993538 546.811518,100.829665 C528.424218,95.167548 510.822399,87.2023963 493.800086,79.4953892 C469.674291,68.5754403 444.724596,57.284275 417.623365,52.7134065 C410.874205,51.5826899 403.501782,50.4413061 395.346013,49.7543424 C361.587404,46.8923494 330.439238,68.0303496 319.632471,101.144345 C310.174681,130.138692 297.093647,163.274022 271.830186,189.170633 C261.714983,199.582826 247.216668,209.331523 230.440884,217.093999 C244.381038,210.025954 256.344683,201.679985 265.075689,192.80386 C292.623022,164.899694 305.203525,127.696985 313.078613,98.3996908 C322.075359,64.9560805 351.892689,42.0942708 385.35034,42.0942708 C387.388749,42.0942708 389.439964,42.1799635 391.503986,42.3513488 C400.158152,43.0735141 407.954264,44.288501 415.089762,45.4928209 C443.584795,50.3293012 469.790619,62.4055678 495.131988,74.0807501 C513.346397,82.4747208 532.185136,91.1545708 551.94596,97.2391062 C562.968308,100.632323 574.824163,103.35991 586.289411,105.996826 C614.417317,112.466445 643.502527,119.155807 666.061628,136.478172 C688.793621,153.918943 712.00053,182.426868 711.692003,261.631433 C711.622731,278.198565 710.765745,297.153002 701.362385,312.395275 C691.414737,328.528254 674.886551,338.507361 654.831171,340.485049 C628.101336,343.123032 596.254135,337.695592 554.578816,323.409095 C550.088981,321.867693 545.293918,320.175885 539.481785,318.075526 C509.334681,307.203579 480.649681,302.035351 454.259226,302.680712 C423.085447,303.455147 392.761183,312.335539 364.128478,329.076545 C340.623811,342.819018 320.673019,361.740387 301.375372,380.038796 C274.565496,405.463918 246.839936,431.755213 209.59362,443.77601 C178.889422,453.630312 136.42542,446.137715 112.098987,434.10945 C103.56862,428.400398 96.8546779,420.126966 92.1417916,409.514231 C87.6765026,399.46152 85.5783291,388.943722 84.1151572,379.981193 C83.3766343,375.364456 82.7768512,370.77972 82.2389674,366.511798 C75.2528819,311.164287 88.5836479,273.362084 122.997536,250.941894 L123.117066,250.888558 Z M158.122199,242.31858 C160.558685,241.838559 163.01438,241.286001 165.476479,240.700375 C162.716623,241.473743 159.984515,242.16924 157.276954,242.812469 C157.552299,242.649261 157.82551,242.479654 158.102989,242.320713 C158.108621,242.31941 158.11402,242.317252 158.118998,242.314313 L158.122199,242.31858 Z M161.354838,243.474898 C164.022912,242.679129 166.654701,241.827892 169.252338,240.949986 C168.887345,241.196397 168.519151,241.432141 168.156293,241.686019 C130.452136,268.079718 125.348643,310.308783 124.789415,339.775684 L124.777675,340.421046 C124.711507,343.924134 124.642137,347.548827 124.670952,351.07005 C124.744591,359.177074 125.162945,367.853724 127.674137,376.457837 C130.53111,386.255603 135.667687,393.88794 143.026236,399.192708 C158.721983,405.768999 177.664242,409.219818 195.371717,409.219818 C205.828849,409.357854 216.248585,407.943992 226.290428,405.024432 C259.029833,394.746645 284.17163,372.566466 308.485256,351.119118 C324.369903,337.106766 340.794568,322.616526 359.311003,311.393631 C386.798571,294.729428 412.792017,285.685829 438.776925,283.731609 C462.024389,281.990732 487.833204,285.889571 515.510739,295.333188 L520.266314,296.956726 C523.202619,297.958015 526.177344,298.971038 529.190489,299.995794 C551.407009,307.500125 585.103719,316.7368 619.462112,318.113927 C639.935846,318.932097 658.490701,309.941833 669.060544,294.063799 C678.992183,279.15114 678.197097,259.692147 676.10426,242.62366 C671.548256,205.350547 664.266548,166.911516 630.394813,142.434702 C611.053409,128.434084 586.809152,122.53409 563.364251,116.827171 C554.260782,114.611607 544.847816,112.321372 536.031431,109.607652 C520.343155,104.774372 505.2013,98.2204829 490.567447,91.8831363 C468.927231,82.5120558 446.547424,72.8230946 422.408823,68.8154509 C416.48143,67.8394078 410.016152,66.8526976 402.888125,66.2393371 C368.221303,63.2450716 344.327098,86.3522254 334.384786,107.055006 L334.384786,107.055006 C323.285598,130.16216 309.480982,158.919697 286.539813,183.093564 C275.876054,194.386863 260.442845,205.055068 243.079018,213.133291 C241.455762,213.887458 239.799421,214.62669 238.124938,215.344589 C254.89752,207.44024 269.559121,197.392863 279.790652,186.718258 C303.990085,161.588615 317.25575,131.057133 327.792509,104.412756 C337.053928,80.9898552 360.5063,58.5760654 392.913797,58.5760654 C394.921256,58.5760654 396.969269,58.6624692 399.042897,58.8395437 C406.642639,59.4859722 413.546548,60.5462857 419.876287,61.5991322 C445.383077,65.8659873 468.981659,76.3336496 491.807568,86.4535632 C507.671937,93.4864071 524.07419,100.760328 541.175478,106.024561 C550.750663,108.974024 560.996068,111.415732 570.903161,113.77637 C595.847521,119.721166 621.63926,125.868637 641.953977,140.908235 C678.186425,167.690218 684.27497,209.006176 687.406222,249.029276 C688.800024,266.843396 688.793621,285.333813 679.355041,299.863521 C669.510915,315.031125 652.428837,323.962719 631.252865,325.007032 C599.389656,326.584701 564.586229,316.352783 537.830781,307.266515 C533.257701,305.708046 528.759328,304.148511 524.383687,302.62631 L523.679315,302.382033 C495.102106,292.43706 468.262347,288.096602 443.887888,289.484396 C416.295732,291.060999 388.279885,300.258205 360.618359,316.80507 C340.363407,328.924005 322.70289,344.924711 305.624014,360.398461 C280.556923,383.107731 254.637116,406.587168 220.550867,417.403646 C192.937366,426.09843 155.556579,420.417112 132.98894,410.347334 C125.41161,405.023366 119.820393,397.274757 116.37004,387.319117 C113.219578,378.24565 112.250533,368.773231 111.715851,360.702475 C111.449044,356.678831 111.307102,352.621051 111.167295,348.696611 C109.423442,299.493372 122.577048,266.786861 152.526714,245.865403 C155.450924,245.131504 158.384738,244.35067 161.351636,243.466364 L161.354838,243.474898 Z M335.155326,107.417689 C344.980243,86.9581188 368.601237,64.1187101 402.817688,67.0777742 C409.915833,67.6890012 416.362967,68.6778448 422.272218,69.6464209 C446.307298,73.6359305 468.638011,83.3056908 490.234471,92.6543704 C504.891804,99.0013173 520.050734,105.561607 535.790237,110.410888 C544.629034,113.133141 554.053739,115.424443 563.168948,117.645341 C586.541278,123.331992 610.698022,129.211718 629.903887,143.116332 C663.49921,167.392604 670.736094,205.633227 675.270753,242.720731 C677.33691,259.634545 678.133063,278.904729 668.356172,293.588044 C657.952817,309.219668 639.706392,318.08726 619.49733,317.260556 C585.239257,315.888762 551.628993,306.672355 529.462633,299.187225 C526.455179,298.170291 523.482233,297.157269 520.543794,296.148157 L515.787152,294.525686 C487.996491,285.0458 462.060675,281.127761 438.713958,282.881438 C412.59031,284.839925 386.476267,293.926193 358.870237,310.661865 C340.291903,321.926362 323.837355,336.44007 307.924961,350.478023 C283.677503,371.867768 258.601874,393.986078 226.037495,404.21053 C202.787896,411.45245 168.788093,409.065144 143.439253,398.456676 C136.321899,393.311915 131.290978,385.829985 128.4895,376.215693 C126.004989,367.711851 125.593039,359.099204 125.518333,351.058316 C125.485249,347.548827 125.554618,343.930534 125.625056,340.431713 L125.635728,339.786351 C126.192822,310.503991 131.255759,268.548005 168.645084,242.374049 C169.970583,241.446008 171.313158,240.58517 172.673876,239.767001 C175.706943,238.688553 178.693052,237.56317 181.605521,236.382318 C183.388862,235.730556 185.145522,235.054259 186.886174,234.366229 C189.004625,233.614196 191.091059,232.825894 193.156148,232.019459 C195.096372,231.338895 197.017385,230.632731 198.919188,229.900965 C199.905309,229.56175 200.892496,229.225735 201.876482,228.871586 C195.328487,231.436814 189.113379,234.780856 183.365383,238.831493 C168.297167,249.676772 157.395416,263.589919 150.036867,281.367771 C144.29197,295.244651 140.868297,310.956278 139.257848,330.814222 L139.151125,332.094278 C138.903527,335.149346 138.646325,338.305752 138.474501,341.382155 C137.983575,350.244413 138.016659,357.702876 139.783992,365.319212 C141.286651,371.826166 144.868274,380.906034 153.385834,387.252981 L153.485086,387.309517 C167.948183,392.933232 185.277859,395.860294 201.564851,395.860294 C211.777784,395.997261 221.95586,394.640624 231.775989,391.83345 C263.045818,382.133821 287.401067,361.2817 310.950557,341.118677 C325.611091,328.565589 340.770022,315.583682 357.573553,305.251493 C385.017364,288.372881 409.180511,279.437019 433.621138,277.128651 C455.848331,275.028291 480.752136,278.515379 507.631382,287.485375 C510.669429,288.498042 513.751945,289.532754 516.878927,290.589512 L520.827677,291.922904 C542.252313,299.117888 574.707835,308.161488 607.66282,310.370652 C628.605068,311.800049 647.458748,303.341008 658.060608,287.803255 C668.447954,272.591917 666.67742,252.281687 663.97306,236.28098 C657.957086,200.678341 649.942191,166.878448 618.348991,144.6396 C600.099364,131.772898 577.474094,126.134249 555.595886,120.683342 C547.30031,118.61605 538.721917,116.478356 530.658997,113.995046 C516.343178,109.587385 502.476663,103.747127 489.065855,98.1010109 C468.632675,89.4958309 447.503662,80.5973046 424.809023,76.8670065 C419.295714,75.9688335 413.282942,75.0589266 406.666118,74.4818345 C375.782626,71.7691814 352.888415,91.0542997 341.778554,110.003403 C340.426729,112.305372 339.066723,114.636141 337.698535,116.995712 C326.001697,137.097933 312.74457,159.882939 293.905832,180.054497 C283.715923,191.027782 269.306188,201.463442 253.332961,209.442461 C248.377814,211.916171 243.057674,214.300276 237.518752,216.531841 C237.463256,216.554242 237.412029,216.573443 237.353331,216.594777 C239.417353,215.717939 241.457896,214.825099 243.446145,213.899192 C260.903888,205.7783 276.431013,195.043959 287.166276,183.673857 C310.194958,159.401851 324.034793,130.578179 335.155326,107.417689 Z M342.506404,110.429022 C353.491399,91.7028617 376.088921,72.6406865 406.595681,75.3202715 C413.180488,75.8952302 419.175117,76.8019369 424.672417,77.6969098 C447.266737,81.4101405 468.350927,90.2894659 488.736081,98.8754451 C502.166099,104.529028 516.057161,110.379953 530.410333,114.800415 C538.49353,117.290125 547.084729,119.43102 555.389911,121.499378 C577.19448,126.933218 599.741842,132.551599 617.856998,145.32763 C649.183391,167.37767 657.149193,200.997288 663.135285,236.417519 C665.811897,252.258219 667.573893,272.358307 657.356236,287.318967 C646.9262,302.604976 628.369211,310.893342 607.716182,309.519414 C574.851911,307.315584 542.468961,298.292252 521.095552,291.112202 L517.146802,289.779876 C514.024088,288.728096 510.938727,287.68485 507.89819,286.673606 C480.906884,277.664141 455.884617,274.16852 433.541096,276.27848 C408.965998,278.598582 384.686523,287.573912 357.127451,304.523994 C340.265222,314.892452 325.08388,327.894626 310.397732,340.472248 C286.912276,360.581936 262.629599,381.374321 231.529459,391.021681 C209.785721,397.702509 177.854209,395.860294 153.850079,386.541483 C145.570511,380.346009 142.082805,371.481618 140.616431,365.12827 C138.873645,357.613272 138.841628,350.217745 139.330419,341.428024 C139.499042,338.364422 139.757311,335.212283 140.005976,332.160414 L140.112699,330.887825 C144.730601,273.894375 167.299307,251.447517 183.869116,239.52379 C195.234044,231.344229 207.891388,227.325918 220.132513,223.43988 C225.975595,221.584864 232.016115,219.666913 237.848526,217.321209 C243.406658,215.08111 248.750277,212.688471 253.7225,210.205162 C269.786441,202.182407 284.281555,191.68061 294.537632,180.634789 C313.441471,160.396029 326.724212,137.567287 338.444528,117.426664 C339.804179,115.06496 341.159916,112.732413 342.51174,110.429022 L342.506404,110.429022 Z M158.349519,243.432229 C157.090188,243.787445 155.824454,244.158661 154.573661,244.489343 C154.726275,244.390138 154.875687,244.289867 155.028301,244.192796 C156.131816,243.944252 157.234264,243.702108 158.349519,243.432229 Z M152.176663,245.083502 C147.435317,246.278222 142.789311,247.277732 138.238643,248.082035 C138.86404,247.664949 139.494773,247.273466 140.126573,246.880915 C142.34641,246.592902 144.552374,246.267554 146.736993,245.884604 C148.695715,245.536855 150.677917,245.15035 152.683597,244.725086 C152.51284,244.842425 152.348487,244.959763 152.176663,245.083502 Z M150.28233,246.424361 C121.320918,267.564495 108.607011,300.178202 110.327385,348.722212 C110.467192,352.653053 110.610201,356.716166 110.879143,360.753677 C111.412758,368.879903 112.393542,378.422724 115.574954,387.591129 C119.085072,397.71851 124.783011,405.604725 132.580191,411.074833 C147.544886,417.755661 168.904421,422.516405 189.687652,422.515338 C200.220817,422.65354 210.714444,421.200643 220.813405,418.205814 C255.071478,407.338134 281.064924,383.792561 306.200318,361.021422 C323.250379,345.575407 340.876745,329.603501 361.055923,317.529368 C388.600054,301.046507 416.485699,291.894103 443.940182,290.328167 C468.200447,288.935039 494.931349,293.266963 523.402903,303.177801 L524.109409,303.423145 C528.48505,304.944279 532.981289,306.507015 537.556503,308.062283 C564.388791,317.176286 599.270126,327.429539 631.304092,325.851869 C652.755409,324.791556 670.078681,315.725555 680.076489,300.320075 C689.648472,285.580224 689.665547,266.924467 688.261073,248.95994 C685.11488,208.744831 678.987914,167.21873 642.468382,140.224471 C622.015992,125.082469 596.137807,118.91473 571.111271,112.950733 C561.216985,110.593296 550.984386,108.150521 541.433748,105.213858 C524.383687,99.9624265 508.002778,92.7002391 492.162955,85.6769956 C469.286887,75.534681 445.631741,65.0467511 420.024632,60.7606952 C413.679952,59.706782 406.754698,58.6411349 399.126141,57.9872394 C363.112475,54.8937694 336.965348,78.9268308 327.015565,104.092742 C316.508689,130.662449 303.282512,161.10326 279.190869,186.123032 C268.434261,197.348061 252.732111,207.883993 234.821862,215.929148 C249.98186,208.462151 263.074634,199.395084 272.440641,189.750925 C297.824699,163.732709 310.951624,130.487508 320.443565,101.398223 C330.477659,70.6416649 358.252311,50.3389016 389.2564,50.3389016 C391.248918,50.3389016 393.258512,50.423172 395.272374,50.5927795 C403.399328,51.2786764 410.747205,52.4157933 417.482491,53.5443765 C444.473797,58.0960442 469.372265,69.3648085 493.451102,80.2623564 C510.499028,87.9778972 528.124327,95.9547828 546.562854,101.6329 C556.866956,104.805307 567.921321,107.393155 578.611761,109.891398 C605.143091,116.097539 632.57623,122.514889 654.010471,138.69267 C671.30813,151.734313 683.210942,168.987341 690.395532,191.428866 C697.186315,212.65647 698.835185,235.640952 699.550229,255.325021 C700.190566,273.146608 699.532086,291.633825 690.362448,306.121931 C680.473498,321.753555 663.6689,331.207839 643.041484,332.741773 C609.317026,335.252818 571.623541,324.007521 546.206399,315.331938 C540.987646,313.550526 535.920439,311.762714 531.585352,310.227712 C502.222662,299.814453 474.466153,295.059043 449.077826,296.079888 C419.684186,297.26714 390.513597,306.304339 362.377154,322.939741 C340.484004,335.881112 321.662341,353.34855 303.459672,370.242096 C277.535596,394.300759 250.729988,419.176524 215.080248,430.588228 C185.764515,439.915573 146.310101,433.423553 122.551434,422.226259 C114.50559,416.714549 108.357279,408.704595 104.266588,398.41294 C100.44057,388.797582 98.913364,378.824875 97.9251093,370.3381 C97.4491248,366.25472 97.0948046,362.154272 96.7138036,357.603671 C92.4384815,306.368342 105.488566,270.899042 136.57163,249.234085 C141.034785,248.49592 145.616402,247.550811 150.28233,246.424361 Z M177.999352,235.797759 C175.086882,236.575393 172.188287,237.298625 169.324909,237.917319 C167.996208,238.205332 166.64723,238.442142 165.302521,238.690686 C166.049582,238.361072 166.796642,238.050658 167.543703,237.738111 C171.045284,237.184487 174.539394,236.544458 177.999352,235.797759 L177.999352,235.797759 Z M169.504204,238.745089 C170.182962,238.597882 170.869191,238.425075 171.551151,238.268268 C167.915455,239.2596 164.295767,240.136439 160.692089,240.898784 C161.225703,240.618238 161.772125,240.35476 162.31321,240.089148 C164.728351,239.691264 167.129618,239.258178 169.504204,238.745089 L169.504204,238.745089 Z M157.802031,241.510011 C154.210803,242.199108 150.551272,242.727131 146.880002,243.185818 C147.876083,242.706508 148.878923,242.25031 149.888522,241.817225 C153.136102,241.428941 156.398624,240.992655 159.65154,240.5009 C159.032546,240.829448 158.41462,241.160129 157.802031,241.510011 L157.802031,241.510011 Z M155.782832,242.710064 C155.416772,242.934074 155.053914,243.167684 154.692123,243.399161 C151.960015,244.010388 149.249252,244.578947 146.589716,245.050434 C145.095594,245.312846 143.568388,245.518721 142.04972,245.734198 C142.899235,245.244931 143.753019,244.774511 144.611072,244.322935 C148.362384,243.89305 152.092352,243.359693 155.782832,242.710064 L155.782832,242.710064 Z M138.200223,247.102791 C138.050811,247.200929 137.899264,247.289466 137.749852,247.389737 C137.238649,247.731086 136.744522,248.088435 136.242924,248.436184 C135.904612,248.491653 135.554561,248.563122 135.21945,248.617525 C131.770164,249.163682 128.25471,249.550899 124.725381,249.882647 C125.717905,249.274621 126.717187,248.694328 127.723229,248.141771 C131.216272,247.856958 134.715718,247.519876 138.200223,247.102791 L138.200223,247.102791 Z M122.832116,250.060789 C119.566393,250.34169 116.303516,250.577078 113.043485,250.766953 C114.24732,250.136525 115.462895,249.533832 116.687007,248.977007 L119.50983,248.771132 C121.55144,248.623925 123.613328,248.472452 125.678417,248.311378 C124.725737,248.868203 123.778748,249.451339 122.837452,250.060789 L122.832116,250.060789 Z M121.347599,251.050699 C87.5377628,273.761035 74.4609975,311.576039 81.4107972,366.62807 C81.9230674,370.696516 82.5473968,375.481794 83.2891214,380.124133 C84.7629656,389.143198 86.8728787,399.727132 91.3787224,409.867313 C96.1545752,420.627255 102.970971,429.023359 111.6817,434.849749 C128.296332,443.063446 153.272708,449.177849 177.267233,449.177849 C188.302327,449.328504 199.294936,447.781453 209.85936,444.59098 C247.287105,432.511513 275.082035,406.151949 301.961281,380.659623 C321.221576,362.39535 341.136081,343.507049 364.556437,329.814711 C393.065343,313.146241 423.254069,304.304251 454.278436,303.534083 C480.598454,302.887655 509.148983,308.043083 539.193633,318.879828 C545.010035,320.974854 549.810434,322.670929 554.305605,324.213397 C596.097252,338.541496 628.051176,343.974269 654.914414,341.330953 C675.24514,339.325531 691.998511,329.206684 702.085966,312.842228 C711.603521,297.409013 712.472246,278.319103 712.538414,261.639967 C712.71344,216.985195 707.390098,167.115259 666.580302,135.811476 C643.876058,118.377106 614.697998,111.66641 586.481513,105.176523 C575.031206,102.542807 563.19136,99.8205535 552.197827,96.4358707 C532.489296,90.3684028 513.679373,81.7002866 495.487376,73.3180498 C470.087309,61.6161996 443.833459,49.5153986 415.231704,44.6597174 C408.081265,43.4521974 400.260606,42.235077 391.572289,41.5097117 C355.28648,38.4578435 321.912073,62.3020966 312.260048,98.1820812 C304.409506,127.374837 291.875961,164.443141 264.471637,192.2065 C254.702217,202.137606 240.854912,211.407348 224.700256,218.947948 C237.969123,212.12098 249.459985,204.133427 257.712872,195.842928 C287.118251,166.37816 298.814021,126.686807 305.715795,95.4000916 C309.71931,77.3109079 319.926004,61.1907297 334.56835,49.8311458 C347.945155,39.4565837 364.398624,33.8318692 381.330086,33.8453489 C383.45743,33.8453489 385.591889,33.9339104 387.733464,34.1109849 C396.911639,34.8704851 405.158123,36.1622755 412.699168,37.4433987 C442.707532,42.5636249 470.232453,55.4527274 496.851295,67.9151445 C516.22685,76.9822116 536.260886,86.3692928 557.340806,92.8549126 C569.072862,96.4678721 581.725937,99.334132 593.959591,102.105454 C623.690476,108.839618 654.433094,115.804193 678.124526,134.272208 C722.244868,168.637459 725.73044,223.759894 723.837175,267.942112 C723.132803,284.427106 721.608799,303.302607 712.371926,318.669685 C702.627999,335.172621 685.678297,346.126287 666.622991,348.234724 C639.301911,351.582072 605.387487,346.101297 562.953367,331.487318 C558.204195,329.849912 553.256518,328.086634 547.381419,325.940406 C516.462708,314.610839 486.869496,309.009525 459.441693,309.294338 C426.52504,309.628889 394.269381,318.569875 365.881936,335.228283 C340.784963,349.752658 319.731723,370.117291 299.373249,389.81096 C271.654093,416.622811 242.99364,444.346702 204.125135,456.98086 C171.726176,467.46559 127.131984,459.144156 101.671085,446.010776 C92.6465913,440.101181 85.3712865,431.562138 80.0479449,420.633655 C74.8601414,409.988918 72.1312351,398.479077 70.3361548,389.644553 C69.5143879,385.543039 68.7075623,381.031906 67.7982826,375.441259 C63.5293639,349.769725 63.7673561,327.262065 68.5239988,308.547638 C74.4834093,285.094869 87.7021162,266.682323 107.810858,253.814554 C108.968802,253.067855 110.141687,252.380891 111.322043,251.717395 C114.645397,251.52432 117.996498,251.319511 121.352935,251.050699 L121.347599,251.050699 Z M182.326969,232.929365 C183.892239,232.618596 185.466758,232.303204 187.050527,231.98319 L186.973687,232.013058 C184.8499,232.490235 182.71544,232.931143 180.570309,233.335783 L181.266142,233.139508 L182.326969,232.929365 Z M157.140348,239.265645 C159.479716,238.938164 161.845764,238.600016 164.217148,238.249067 C163.49072,238.579037 162.767139,238.920386 162.046403,239.273112 C159.011202,239.772334 155.957858,240.196886 152.908782,240.58197 C153.968186,240.172352 155.033637,239.781224 156.105135,239.408585 L157.140348,239.265645 Z M149.660135,240.989455 C147.922685,241.202797 146.185235,241.399073 144.464861,241.597482 L143.154303,241.748955 C144.137577,241.448142 145.123342,241.161551 146.111597,240.889184 C148.1187,240.566325 150.123669,240.2616 152.126503,239.97501 C151.304736,240.299291 150.483681,240.637439 149.663337,240.989455 L149.660135,240.989455 Z M144.560912,242.439119 C145.400822,242.342048 146.253538,242.24071 147.09665,242.142572 C146.178832,242.575658 145.266351,243.027945 144.359205,243.499432 C141.454206,243.832247 138.557745,244.121326 135.673023,244.393338 C136.828477,243.92754 137.991757,243.486632 139.162864,243.070613 C140.969328,242.855137 142.770812,242.644639 144.567315,242.439119 L144.560912,242.439119 Z M132.86194,244.660017 L132.051913,244.73682 C130.224104,244.906072 128.389892,245.079591 126.549277,245.257376 C127.600854,244.930962 128.657055,244.621615 129.717881,244.329335 C131.671623,244.034922 133.628211,243.76291 135.587645,243.513299 C134.678365,243.878827 133.771931,244.261066 132.868344,244.660017 L132.86194,244.660017 Z M130.538581,245.726731 C129.504791,246.22453 128.477761,246.753265 127.457489,247.312934 C124.772339,247.526277 122.095727,247.733219 119.446863,247.925228 C119.315594,247.933761 119.185392,247.944428 119.054123,247.954029 C120.314165,247.430628 121.582745,246.939584 122.859864,246.480897 C125.431887,246.211374 127.993594,245.960341 130.544984,245.727797 L130.538581,245.726731 Z M116.479965,248.141771 C114.40527,248.295377 112.324884,248.458585 110.238805,248.631392 C111.40422,248.264443 112.574615,247.919183 113.749991,247.595613 C115.660332,247.322534 117.572808,247.076123 119.487418,246.85638 C118.484222,247.262443 117.483872,247.691262 116.486368,248.142837 L116.479965,248.141771 Z M114.368984,249.149815 C113.259777,249.695261 112.156973,250.270931 111.060572,250.876825 C109.649695,250.956828 108.233481,251.038965 106.833275,251.114702 C105.51418,251.185816 104.192593,251.25693 102.868517,251.328045 C104.173383,250.776909 105.489633,250.262398 106.817267,249.78451 C109.340909,249.549833 111.860283,249.338623 114.375388,249.150882 L114.368984,249.149815 Z M100.44804,251.472051 C98.3541356,251.59579 96.258808,251.734818 94.1620574,251.889136 C95.3566432,251.507252 96.5590553,251.151681 97.7692937,250.822422 C99.7073828,250.555744 101.649741,250.324267 103.596368,250.116258 C102.542656,250.542232 101.495348,250.994519 100.454444,251.473118 L100.44804,251.472051 Z M98.3669424,252.448094 C96.2324494,253.506715 94.1539335,254.674536 92.1396572,255.946915 C53.5849177,280.20612 40.2456139,323.469897 52.4931417,384.518993 C53.6564221,390.400853 54.673492,395.156263 55.7001669,399.482854 C59.0021756,413.26693 62.5411092,423.334574 67.1771549,432.124296 C73.2496918,443.644805 80.9636279,452.310787 90.7885444,458.618266 C109.473602,468.624041 137.960096,475.813692 164.689931,475.813692 C176.811526,475.813692 188.5788,474.335227 198.90318,470.967611 C239.601984,457.650756 269.290179,428.412132 298.002927,400.137816 C319.372066,379.09262 341.470124,357.329526 368.048412,342.09472 C397.209165,325.3168 430.298823,316.565839 463.945403,316.7336 L464.612421,316.7336 C492.988991,316.82427 523.39223,322.828802 554.979027,334.576521 C560.77195,336.729149 566.026989,338.619366 571.044035,340.355976 C614.998957,355.551314 650.156705,360.937152 678.526871,356.806836 C697.681509,354.02058 713.866048,342.853153 724.097579,325.356914 C734.078311,308.306561 735.860584,286.191451 736.816822,274.310393 C740.279982,231.321828 739.266114,169.742575 690.695424,131.389948 C665.716913,111.655743 633.215501,104.392489 601.785586,97.3713787 C588.802737,94.4699172 575.378055,91.4713848 562.967241,87.650416 C540.639729,80.7765125 519.44348,70.7110013 498.943065,60.9825716 C470.988051,47.7094521 442.082135,33.9851127 410.437708,28.5544729 C402.470838,27.1922794 393.756908,25.8204854 384.022706,25.0215168 C363.58313,23.2961514 343.261168,29.4822405 327.253558,42.30228 C311.613798,54.8014913 301.046924,72.5517634 297.517337,92.253286 C291.560061,125.466486 280.749024,167.533411 249.75454,198.284635 C240.984046,207.006087 228.5743,215.338188 214.180573,222.353965 C225.687443,216.175559 235.60094,209.204584 242.995774,201.927463 C258.897497,186.287306 281.183387,157.607639 290.99016,89.4083604 C297.286815,45.5834916 336.480826,14.0588993 380.18815,17.6270569 C390.421815,18.4633605 399.558369,19.9055576 407.909441,21.3402876 C440.96688,27.0397393 471.153472,41.5534469 500.344338,55.5892668 C522.016571,66.0099937 544.420924,76.7848695 568.113423,84.0769249 C581.258491,88.124037 595.486797,91.2633756 609.246589,94.299243 C642.195171,101.567831 676.268613,109.083896 702.232177,129.851746 C723.525543,146.873298 737.905396,169.948451 744.972591,198.441442 C750.813539,221.990216 751.843416,248.850068 748.125188,280.558135 C746.088913,297.912502 743.014225,316.057303 734.379269,331.209972 C724.039948,349.360107 708.765757,360.603271 690.195961,363.722342 C661.102212,368.608957 624.95621,363.352192 579.694999,347.642698 C574.465574,345.829285 569.060056,343.864398 563.172149,341.644567 C530.728367,329.41256 499.312327,322.970675 469.79809,322.501321 C433.400222,321.917829 399.607461,330.3342 369.380315,347.509359 C341.14035,363.557001 317.939844,386.787894 295.494937,409.253952 C265.914532,438.865927 235.328796,469.485946 193.161484,483.363892 C158.638739,494.698793 108.897298,485.35758 80.7757955,469.785692 C70.5752142,463.354475 62.4119744,454.543419 55.816495,442.849036 C50.6553722,433.700899 46.6169751,423.243904 42.7269229,408.944605 C41.4953399,404.391871 40.2669585,399.415651 38.861417,393.278847 C24.1058994,329.507497 37.0652695,284.50711 77.3777362,259.526807 C81.6567324,256.88669 86.1991706,254.699152 90.9315532,252.999585 C93.4096605,252.784109 95.8920367,252.605968 98.3733457,252.449161 L98.3669424,252.448094 Z M155.936513,238.569081 L155.894891,238.585082 L155.788168,238.598949 L155.936513,238.569081 Z M139.417932,242.079636 C139.265318,242.131905 139.115906,242.186308 138.962225,242.244977 L137.970769,242.363382 C138.452089,242.262044 138.934477,242.170307 139.417932,242.079636 Z M123.453243,245.386449 C123.197108,245.476053 122.936704,245.560323 122.679502,245.650994 C122.232332,245.697929 121.787298,245.742731 121.34333,245.792867 C122.042366,245.647794 122.747804,245.517655 123.451109,245.386449 L123.453243,245.386449 Z M107.668916,248.578056 C107.323134,248.698595 106.978419,248.833001 106.633703,248.95674 C106.053131,249.011142 105.47149,249.063411 104.891985,249.123147 C105.813004,248.933272 106.738292,248.747664 107.666782,248.57699 L107.668916,248.578056 Z M91.9368835,251.749397 C91.5398741,251.885936 91.1407302,252.020342 90.7458552,252.165415 C90.1151225,252.219817 89.4833225,252.28062 88.853657,252.340356 C89.8781975,252.130569 90.9059397,251.933582 91.9368835,251.749397 Z M772.402528,293.167759 C769.602118,308.084684 765.241417,327.310067 756.383411,343.743859 C745.695106,363.548467 731.357942,375.479661 713.771064,379.204625 C683.524708,385.604908 644.046815,380.422812 596.437699,363.785278 C590.781381,361.809724 585.069568,359.702964 578.966081,357.34446 C545.016438,344.22388 511.771166,336.939292 480.154487,335.700837 C440.291324,334.137035 404.197616,342.24406 372.876559,359.785101 C341.500007,377.303741 316.176781,403.401961 291.69133,428.642542 C260.22513,461.077041 227.687432,494.616656 182.193565,509.740524 C165.324933,515.345038 143.068925,516.558958 119.534376,513.147607 C97.3872255,509.941066 75.643488,502.800484 59.8762367,493.555275 C48.5881483,486.668571 39.3331325,477.348693 31.5807761,465.061217 C25.3727011,455.222916 20.1400739,443.523199 15.1144894,428.243591 C13.491233,423.302573 11.8412959,417.860199 9.9234842,411.113235 C1.12737717,380.245738 -1.29736867,352.977334 2.71754939,330.069655 C7.67910018,301.759072 22.5605509,279.945842 46.9488835,265.237992 C56.1676135,259.67188 66.1291354,256.626412 76.363868,254.830066 C71.2466736,256.564643 66.3348396,258.853935 61.7161406,261.657034 C18.9618524,287.784055 6.12094484,335.138679 23.5754863,402.406717 C25.232894,408.834734 26.6704524,414.055231 28.1112124,418.834109 C32.5679636,433.596361 37.2893877,444.89286 42.9723857,454.383412 C50.2295476,466.498081 59.0267218,475.656885 69.8943217,482.392116 C90.4139468,494.103566 121.992206,502.599942 151.57688,502.599942 C164.432729,502.599942 176.915047,500.993471 187.942731,497.349576 C231.923266,482.7964 263.52287,450.665915 294.082992,419.593609 C317.534297,395.749356 341.788159,371.095467 371.543589,354.380062 C402.104779,337.099299 436.894332,328.872803 474.947473,329.940583 C505.414746,330.793954 537.650419,337.632656 570.762287,350.278548 C576.738773,352.559182 582.301174,354.597672 587.783533,356.506023 C634.677605,372.839544 672.082938,378.007772 702.136126,372.293387 C720.345199,368.831901 735.552155,356.932708 746.114527,337.886534 C754.86581,322.107704 758.601114,303.302607 761.096297,286.99042 C766.059982,254.562321 765.550914,225.318363 759.576562,200.053247 C752.41972,169.787377 737.358975,145.200691 714.81268,126.976953 C687.547096,104.930113 651.709524,97.113234 617.050173,89.5566336 C602.548656,86.3938272 587.554079,83.1232828 573.73879,78.870295 C548.821112,71.1995562 525.263084,59.7419835 502.479865,48.6630942 C471.94002,33.8123051 440.358559,18.4548268 405.651183,12.4460281 C396.875353,10.9312946 387.269219,9.40696057 376.479527,8.53225527 C353.699526,6.62094384 331.094269,13.8435766 313.647446,28.6078085 C296.321956,43.1633237 285.266997,63.8262978 282.775693,86.3106235 C278.885641,120.795347 269.7096,170.550077 235.034241,204.35317 C226.806967,212.384458 215.428164,220.027462 202.123012,226.647488 C211.61509,221.596889 220.405375,215.326886 228.270139,207.997064 C243.817541,192.9564 255.295596,174.188638 263.358517,150.61853 C269.773634,131.869969 273.991326,109.883931 276.25492,83.4091621 C280.468343,34.0917841 323.728498,-2.80477874 372.636433,1.13246181 C383.927723,2.04450209 393.957547,3.6403059 403.110109,5.22864271 C439.237968,11.5051866 472.106508,27.6541664 503.895011,43.2697894 C527.841511,55.0356423 552.604441,67.201513 578.876434,75.2882701 C593.423842,79.768468 609.217774,83.1755518 624.491965,86.4706306 C660.671051,94.2779087 698.077452,102.349732 726.33129,125.420617 C749.847696,144.621465 765.41004,170.412471 772.587159,202.086403 C778.732268,229.205468 778.671436,259.846821 772.404663,293.167759 L772.402528,293.167759 Z" id="Path_1"/>
                        <path d="M300.887221,176.507622 C291.152623,187.192193 277.784073,197.392701 263.242937,205.231536 C258.668784,207.696632 253.869709,210.055106 248.564289,212.443435 C243.160798,214.875478 237.553703,216.949272 232.129958,218.953762 C220.755871,223.158926 208.998029,227.508029 198.30724,235.442824 C166.612232,258.975322 157.72083,293.675388 153.514443,321.273376 L153.261804,322.926014 C152.850333,325.611817 152.42607,328.389315 152.072162,331.098575 C151.199118,337.828543 150.372978,345.668444 151.68201,353.574451 C152.716018,359.835283 155.626164,368.591066 163.607213,374.75274 L163.723406,374.815647 C177.696287,379.607536 192.37082,382.0331 207.142144,381.99236 C217.216895,382.114081 227.256467,380.780713 236.950354,378.033493 C266.818259,368.889607 290.433081,349.315976 313.269733,330.388474 C326.603105,319.337124 340.38739,307.909399 355.386901,298.534144 C382.774253,281.40855 405.148265,272.596258 427.930551,269.9595 C449.143703,267.507199 473.091114,270.571509 499.131058,279.061804 C503.299069,280.418033 507.543831,281.833971 511.838695,283.274431 C541.737514,293.263828 570.542629,299.75603 595.13816,302.047332 C616.54319,304.037961 635.656347,296.162875 646.276781,280.970334 C657.247925,265.283068 654.253566,244.021614 651.048141,229.392037 C644.267394,198.45572 635.164927,166.560874 605.559254,146.333652 C588.409647,134.596724 567.405428,129.217654 547.091969,124.015576 C539.630056,122.104913 531.924033,120.131343 524.641206,117.886954 C511.76301,113.918491 499.223798,108.802777 487.097124,103.857658 C467.852851,96.0070942 447.952995,87.8910425 426.685478,84.4343636 C421.594321,83.6155082 416.04479,82.7827919 409.949473,82.2411531 C386.840995,80.1758888 363.935055,91.4714027 348.743666,112.457772 C344.772863,117.942398 340.927846,123.522983 336.855773,129.431963 C326.167116,144.947568 315.121353,160.980289 300.887221,176.507622 Z M349.420568,112.968491 C364.436069,92.226285 387.049929,81.0651146 409.862062,83.0994586 C415.938191,83.638965 421.469601,84.4684826 426.543701,85.2841394 C447.714214,88.7269574 467.569298,96.8238172 486.771998,104.656255 C498.914662,109.608838 511.471995,114.730949 524.387501,118.710075 C531.687383,120.959795 539.410463,122.937629 546.879838,124.850424 C567.120809,130.03331 588.052541,135.394255 605.082758,147.046951 C634.460309,167.109976 643.197143,197.537707 650.223067,229.583956 C653.39438,244.056799 656.365287,265.081553 645.583889,280.494801 C635.142541,295.435714 616.316135,303.176457 595.220241,301.214616 C570.685472,298.928644 541.945381,292.450304 512.10839,282.481165 C507.814592,281.044969 503.565566,279.625833 499.393291,278.268537 C473.237154,269.738793 449.162891,266.659556 427.836744,269.128916 C404.918012,271.776336 382.438467,280.624879 354.93812,297.82191 C339.894904,307.227019 326.087167,318.67287 312.731409,329.741279 C289.958717,348.613339 266.409986,368.134725 236.707309,377.227432 C216.144409,383.45841 186.961934,382.182147 164.071983,374.044771 C156.345706,368.053692 153.526169,359.537809 152.520942,353.44224 C151.230031,345.64712 152.046578,337.881854 152.914292,331.21266 C153.266068,328.512996 153.691397,325.739763 154.100736,323.058225 L154.353375,321.407719 C158.534178,293.965399 167.366951,259.47218 198.81465,236.123071 C209.40417,228.260779 221.108713,223.934066 232.426303,219.749161 C237.86284,217.73934 243.482726,215.661281 248.912866,213.217509 C254.235342,210.820651 259.054672,208.452581 263.643748,205.978955 C278.268032,198.096405 291.71653,187.83299 301.512956,177.084446 C315.788661,161.510199 326.850414,145.45722 337.543335,129.933086 C341.615408,124.026238 345.456161,118.449918 349.420568,112.972756 L349.420568,112.968491 Z" id="Path_2"/>
                        <path d="M260.475664,209.41755 C255.457587,211.942989 250.253735,214.174698 245.223913,216.335102 C234.746809,220.831511 223.910966,225.480106 213.982647,233.081964 C201.010473,243.053524 190.468353,255.81993 183.144962,270.426102 C177.12327,282.109316 172.432969,295.528303 168.38541,312.657226 L167.939121,314.53135 C167.366847,316.941851 166.79564,319.343838 166.275682,321.73199 C164.840725,328.33027 163.499724,335.378724 164.184105,342.721971 C164.637867,347.633433 166.575699,356.817814 174.457283,363.115979 L174.592878,363.188347 C187.141234,367.065219 200.206909,369.022618 213.344177,368.99377 C223.351095,369.102394 233.32255,367.790143 242.958305,365.096527 C271.642487,356.486836 294.716033,338.123395 317.027257,320.364443 C328.930776,310.892718 341.238945,301.093207 354.352141,292.777245 C373.711242,280.501251 397.07733,267.457941 423.595198,263.801216 C443.827658,261.006525 466.903338,263.647966 492.178431,271.643592 C496.576189,273.027102 501.040142,274.501073 504.427878,275.623845 C527.967997,283.408751 557.26289,293.098645 584.44592,294.698196 C614.520217,296.453126 629.322476,285.033844 636.44174,275.133231 C645.121945,263.066891 646.312404,246.200835 640.081447,223.569798 C632.500948,196.065611 622.756269,167.666399 594.603789,149.198663 C578.471206,138.589267 558.991458,133.463893 540.152315,128.507733 C533.548739,126.770895 526.720952,124.97446 520.240159,122.984334 C508.826703,119.478731 497.647068,115.108967 486.833645,110.88181 C468.658597,103.779081 449.874974,96.4347688 429.909434,93.2452452 C425.447616,92.5417834 420.13059,91.7553109 414.52102,91.247669 C385.402293,88.6072926 364.481183,107.763591 356.843029,116.122122 C348.898452,124.818017 341.627579,134.030068 333.930703,143.783816 C326.155887,153.63441 318.115219,163.821304 308.877687,174.070988 C298.767037,185.120867 287.025875,194.570188 274.058638,202.093459 C269.917123,204.505024 265.473456,206.900626 260.475664,209.41755 Z M309.508683,174.63397 C318.765434,164.364066 326.813575,154.167594 334.599068,144.303165 C342.286335,134.561123 349.546532,125.359715 357.472958,116.688297 C365.023562,108.422354 385.659603,89.4703903 414.448418,92.0862892 C420.032363,92.5896741 425.331239,93.3750823 429.77811,94.0774799 C449.649695,97.25104 468.397017,104.579388 486.524019,111.664026 C497.351321,115.896503 508.545904,120.271589 519.99139,123.78677 C526.488198,125.782217 533.325595,127.581845 539.937712,129.320811 C558.709591,134.259943 578.121008,139.366161 594.13935,149.898932 C622.043062,168.203839 631.734356,196.439158 639.265743,223.789031 C645.425165,246.157201 644.275278,262.789125 635.754156,274.636231 C623.086181,292.255768 600.88813,294.811006 584.50571,293.84787 C557.432651,292.251511 528.195412,282.586095 504.704406,274.816087 C501.308128,273.692251 496.845243,272.221473 492.443215,270.832642 C467.051745,262.797639 443.852214,260.151941 423.487363,262.957275 C396.810411,266.637412 373.342893,279.732871 353.909056,292.058884 C340.755288,300.398259 328.428969,310.209476 316.507299,319.698229 C294.258,337.407163 271.251718,355.719519 242.725552,364.282385 C223.306661,370.047366 196.708718,369.310913 174.935602,362.401875 C167.355102,356.299529 165.479196,347.404622 165.038245,342.637896 C164.364542,335.414908 165.693798,328.434566 167.11274,321.905461 C167.63163,319.523694 168.201769,317.127029 168.772976,314.71972 L169.219264,312.84666 C175.559124,286.027843 185.895295,255.657661 214.509011,233.747113 C224.351916,226.20911 235.137578,221.581799 245.567705,217.106675 C250.609271,214.943078 255.817394,212.706048 260.865366,210.167839 C265.883443,207.643464 270.338855,205.239349 274.49425,202.817141 C287.534104,195.250041 299.341083,185.746585 309.508683,174.63397 Z" id="Path_3"/>
                        <path d="M228.839053,230.233208 C202.762076,251.045909 190.813993,279.113474 182.563162,303.824359 L181.800677,306.0991 C181.117107,308.131869 180.437803,310.159308 179.794756,312.175022 C177.75151,318.59205 175.921547,324.917405 176,331.750154 C176.093239,339.765042 179.225292,346.939961 184.594677,351.434012 L184.75144,351.518222 C195.750723,354.509363 207.10113,356.01507 218.500187,355.995218 C228.486632,356.089602 238.437151,354.78645 248.062199,352.123682 C275.7196,343.957429 298.396855,326.581355 320.329754,309.77983 C330.54385,301.953615 341.106663,293.860912 352.108838,286.727565 C370.807309,274.603434 392.845784,261.324878 417.85315,257.244416 C437.077362,254.103057 459.207548,256.327698 483.629454,263.853314 C487.110223,264.924596 490.956772,266.155769 495.385582,267.616123 L499.248127,268.895264 C523.13576,276.775843 547.826402,284.923975 571.870797,287.053746 C604.081778,289.910496 618.735348,276.927208 624.602748,268.9411 C635.888588,253.580741 632.189204,232.332066 627.098152,217.211546 C618.796133,192.548629 607.555082,167.490244 581.760704,151.263266 C566.617651,141.716605 548.653938,136.808965 531.275684,132.061218 C525.609836,130.513456 519.749901,128.913463 514.152304,127.18982 C504.348776,124.169979 494.676418,120.553206 485.32185,117.056886 C468.165411,110.643056 450.424577,104.011773 431.706911,101.067615 C427.654544,100.437638 422.829029,99.7309121 417.717715,99.2554978 C394.77599,97.1235951 375.701075,108.742465 363.738063,118.869003 C350.556142,130.028448 339.757652,142.787886 328.325713,156.296688 C324.310671,161.040172 320.160195,165.946746 315.778307,170.935398 C306.486219,181.526996 295.74789,190.757495 283.879786,198.354866 C280.172937,200.720212 276.102441,203.161241 271.43049,205.816526 C266.808659,208.447294 262.029,210.847816 257.405036,213.17159 C247.855315,217.976899 237.978206,222.937837 228.839053,230.233208 Z M271.854922,206.56056 C276.537538,203.895681 280.619764,201.443993 284.339409,199.075449 C296.274809,191.435201 307.073541,182.151874 316.417088,171.499287 C320.803241,166.50637 324.956917,161.596598 328.975158,156.849917 C340.385769,143.36883 351.156532,130.634975 364.286199,119.521365 C376.123374,109.501423 394.99887,97.9891476 417.639867,100.099731 C422.729853,100.569816 427.543637,101.272278 431.578941,101.902255 C450.212361,104.837885 467.911605,111.453179 485.028587,117.852086 C494.394885,121.353736 504.077908,124.973707 513.907029,128.001009 C519.516357,129.729982 525.382691,131.332107 531.054937,132.880934 C548.371338,137.611626 566.278532,142.503277 581.310678,151.981717 C606.882176,168.067989 618.043246,192.970745 626.29621,217.483363 C631.32541,232.41521 634.993868,253.376078 623.923443,268.443301 C618.158419,276.289769 603.719198,289.033218 571.948645,286.214843 C547.998094,284.093599 523.350109,275.959324 499.512597,268.093669 L495.648986,266.820923 C491.213777,265.356306 487.361897,264.123 483.874729,263.050653 C459.331252,255.482398 437.067765,253.253494 417.714516,256.416172 C392.547188,260.522216 370.41487,273.851938 351.646015,286.022971 C340.616114,293.174439 330.039437,301.278867 319.811478,309.114676 C297.942563,325.870366 275.32716,343.194208 247.82119,351.316757 C229.603671,356.640118 205.56354,356.409873 185.064965,350.729418 C179.929124,346.390996 176.934639,339.476169 176.844702,331.742692 C176.768278,325.036792 178.575847,318.782855 180.599897,312.435115 C181.239745,310.419401 181.920116,308.398357 182.601553,306.367719 L183.364038,304.092979 C191.575412,279.500415 203.461642,251.571423 229.364794,230.895164 C238.429298,223.655222 248.273349,218.714537 257.786812,213.934811 C262.424639,211.607839 267.211763,209.198789 271.854922,206.56056 Z" id="Path_4"/>
                        <path d="M195.950697,297.306649 C195.150749,299.069421 194.350802,300.830057 193.582852,302.58322 C190.870496,308.758794 188.584778,314.385571 188.087744,320.734112 C187.485117,328.391653 190.007619,335.308211 195.007825,339.710336 L195.19128,339.804294 C204.513478,341.938 214.046924,343.008953 223.609692,342.996715 C233.71482,343.074634 243.782948,341.765916 253.533071,339.107086 C280.648101,331.272307 303.361285,314.590569 325.327851,298.457629 C333.447854,292.493459 341.84304,286.325359 350.380082,280.65801 C371.307783,266.764036 390.442534,254.915774 412.720546,250.665262 C431.227071,247.131177 451.856124,248.890745 475.779896,256.038994 C479.239937,257.071459 482.926096,258.230981 487.05916,259.584824 C490.32508,260.652524 493.605932,261.743713 496.896384,262.835969 C517.627831,269.731173 539.064298,276.860203 560.12319,279.385312 C592.867719,283.302702 607.727549,270.630176 613.666361,262.729199 C618.053275,256.892086 626.967893,240.149489 615.019873,210.827257 C607.371305,192.054963 595.313426,168.5581 569.759894,153.329501 C555.467494,144.794311 538.852045,140.064402 522.780561,135.488242 C518.172862,134.176039 513.405173,132.818993 508.817739,131.404291 C500.827861,128.937905 492.877446,126.129855 485.188348,123.413628 C468.803285,117.623493 451.860391,111.637969 434.132481,108.89932 C430.506052,108.345184 426.166068,107.724851 421.517838,107.277485 C405.666073,105.760283 389.188216,110.453891 371.174458,121.626299 C352.70633,133.077376 340.390335,147.540434 326.132065,164.288369 L323.145594,167.791491 C314.643396,177.922165 304.89231,186.932803 294.125621,194.607833 C290.819171,196.931147 287.217272,199.347351 282.788762,202.213057 C278.556505,204.949571 274.189856,207.524862 269.967199,210.014737 C261.327763,215.1098 252.389679,220.379965 244.027559,227.36699 C220.698948,246.859981 207.6502,271.369024 197.023694,294.952371 L195.950697,297.306649 Z M244.56299,228.012949 C252.873914,221.072902 261.78,215.81982 270.391704,210.739705 C274.622895,208.245559 278.994876,205.667065 283.242065,202.919874 C287.681242,200.04883 291.29274,197.62622 294.604524,195.297567 C305.430602,187.582095 315.235481,178.523352 323.784485,168.338154 L326.770957,164.833964 C340.983362,148.141549 353.259894,133.72547 371.617096,122.339522 C389.470864,111.267478 405.7706,106.617646 421.437844,108.114561 C426.065808,108.554453 430.386593,109.182261 434.002357,109.72999 C451.652404,112.455827 468.560101,118.429606 484.906767,124.204793 C492.602264,126.924224 500.561211,129.736544 508.570289,132.21254 C513.165189,133.630445 517.935011,134.988558 522.550176,136.301829 C538.56833,140.861974 555.131516,145.576935 569.324722,154.055537 C594.664935,169.153876 606.635353,192.49272 614.234857,211.144364 C626.018621,240.065141 617.289591,256.495969 612.988005,262.216703 C607.157986,269.975676 592.561605,282.406902 560.22025,278.543965 C539.248819,276.032736 517.852883,268.917586 497.163033,262.03733 C493.870093,260.943294 490.589951,259.858155 487.322609,258.781914 C483.185279,257.427003 479.486321,256.265346 476.01668,255.229678 C451.959584,248.042992 431.19934,246.279152 412.554157,249.83566 C390.122555,254.116067 370.909942,266.009172 349.905447,279.956531 C341.351338,285.63349 332.946554,291.807996 324.819084,297.777504 C302.912248,313.866669 280.260927,330.503563 253.290954,338.295634 C236.225401,343.173953 214.625745,343.440878 195.481395,339.004587 C190.735038,334.776497 188.346927,328.149286 188.926089,320.801377 C189.414591,314.583095 191.67151,309.024651 194.352935,302.922748 C195.123018,301.170654 195.919766,299.416423 196.716514,297.653651 L197.783111,295.296171 C208.373353,271.808916 221.365571,247.399169 244.56299,228.016152 L244.56299,228.012949 Z" id="Path_5"/>
                        <path d="M205.707139,327.006891 L205.828676,327.028176 C213.235083,328.346026 220.744028,329.00524 228.267173,329 C238.696713,329.058055 249.087343,327.723717 259.162085,325.030618 C286.720061,317.314959 310.330217,300.704473 333.165309,284.638873 C338.257069,281.056679 343.522605,277.351033 348.751893,273.802894 L350.465138,272.632242 C368.235123,260.558565 386.606396,248.075159 407.64935,243.441507 C425.167732,239.581548 444.89297,240.929926 467.955144,247.555816 C471.321931,248.521071 474.851834,249.603392 478.751678,250.866632 C483.779471,252.492774 488.909611,254.228531 493.872371,255.907884 C511.663678,261.929292 530.060538,268.15716 548.350786,270.929476 C562.607926,273.09731 588.622169,274.002969 602.671417,255.80359 C614.262206,240.788384 610.37942,219.194114 602.88464,203.98309 C592.022006,181.964193 577.249933,166.008209 557.729389,155.204157 C543.983984,147.578956 528.387805,142.952753 513.303361,138.479799 C510.012268,137.503901 506.7361,136.531196 503.495114,135.532949 C497.862835,133.79932 492.20177,131.939048 486.728342,130.139437 C470.587379,124.832127 453.892037,119.346027 436.612464,116.754629 C433.601759,116.308717 429.603832,115.742548 425.383087,115.330691 C407.910548,113.60664 391.980676,118.922464 378.711823,124.351096 C356.25307,133.539648 343.807257,148.527184 330.63009,164.394838 C321.552131,175.375552 313.252435,183.663767 304.498575,190.479089 C300.778904,193.37592 297.084819,196.119503 294.283072,198.185171 C290.445063,201.017084 286.500441,203.756409 282.67949,206.40634 C274.583428,211.810339 266.804381,217.673217 259.380638,223.966117 C237.68309,242.991338 223.381173,265.560441 211.682707,285.219942 L210.222131,287.667669 C209.338322,289.148011 208.45558,290.623032 207.587763,292.098054 C204.154877,297.939606 201.445882,302.874436 200.388297,308.745787 C199.100431,315.884635 201.058882,322.687186 205.628246,326.92601 L205.707139,327.006891 Z M201.210271,308.889458 C202.242269,303.156457 204.915016,298.290802 208.305258,292.522681 C209.170942,291.048724 210.052619,289.573703 210.937493,288.096553 L212.397003,285.648826 C224.064552,266.043601 238.321692,243.541544 259.926489,224.597205 C267.326919,218.327394 275.081025,212.485853 283.150712,207.101281 C286.97273,204.448158 290.92588,201.70564 294.771352,198.866278 C297.57843,196.796352 301.274647,194.048513 305.006045,191.146361 C313.807881,184.291662 322.153419,175.961942 331.270825,164.934402 C344.377628,149.150823 356.757341,134.242039 379.020996,125.13224 C392.1907,119.742984 407.992639,114.454831 425.290335,116.171432 C429.492956,116.582224 433.475957,117.146266 436.476001,117.590049 C453.690541,120.170804 470.346437,125.647326 486.453285,130.941865 C491.929911,132.742541 497.593108,134.604941 503.236048,136.340699 C506.482365,137.34001 509.761731,138.312715 513.056022,139.289677 C528.09569,143.750925 543.653489,148.364357 557.312539,155.94486 C576.678496,166.66271 591.336495,182.498436 602.117038,204.357699 C609.506273,219.335657 613.351745,240.580859 601.997633,255.289567 C588.21598,273.146265 562.551422,272.233156 548.47872,270.097249 C530.26843,267.330254 511.911016,261.119414 494.14956,255.109713 C489.185734,253.429295 484.052396,251.693538 479.020339,250.065268 C475.1109,248.800964 471.572468,247.71545 468.198218,246.745938 C444.992119,240.080672 425.12722,238.732294 407.475574,242.618858 C386.276967,247.28763 367.832132,259.818926 349.996048,271.937301 L348.282803,273.100503 C343.04925,276.652899 337.77945,280.360673 332.684492,283.944996 C309.910168,299.968027 286.358648,316.538071 258.940333,324.213291 C242.983808,328.640483 223.734057,329.36948 206.109064,326.215105 C201.810493,322.166778 199.982108,315.699459 201.210271,308.889458 Z" id="Path_6"/>
                        <path d="M215.525036,316.068837 L215.668087,316.085863 C231.87166,318.009731 248.293382,316.890793 264.083625,312.786941 C295.295591,304.370432 322.53627,285.362254 346.572163,268.590958 C348.428989,267.294801 350.284391,265.990839 352.13837,264.679074 C367.639199,253.750064 383.665263,242.450722 402.133882,237.776894 C418.689451,233.586198 437.548793,234.525859 459.789067,240.650149 C463.098473,241.560013 466.479404,242.565652 470.122953,243.736238 C476.661698,245.828393 483.28905,248.14828 489.699689,250.392612 C504.871713,255.702813 520.559363,261.194987 536.366579,264.127835 C548.002877,266.288097 576.682614,269.281603 591.558926,250.480938 C603.395923,235.527242 599.615727,213.635167 590.618414,198.572925 C580.676319,181.92933 565.49362,168.388849 545.489864,158.330328 C530.940222,150.999271 514.91309,146.077492 499.414396,141.31853 L494.205818,139.716957 C476.248556,134.18328 457.679588,128.463374 438.671856,125.71782 C434.929025,125.185735 431.795765,124.788801 428.81303,124.485513 C413.643141,122.928634 399.144741,125.367708 385.742716,128.234578 C362.311056,133.251069 350.972605,145.515611 337.511864,162.296484 C330.383832,171.208896 323.239785,179.860586 314.226459,187.736497 C311.157252,190.419266 308.034668,193.088201 305.119188,195.57197 C301.669933,198.508011 298.13741,201.419576 294.723384,204.23643 C287.891063,209.876524 280.816407,215.706039 274.01291,222.045291 C254.840775,239.803071 238.938547,259.823273 225.539724,277.185183 C223.944804,279.23619 222.356645,281.283296 220.775248,283.326499 C217.401789,287.714066 213.578892,292.691182 211.856933,298.520698 C209.924667,305.062142 211.323158,311.91113 215.416145,315.965612 L215.525036,316.068837 Z M212.676812,298.758007 C214.351798,293.077476 217.962253,288.380236 221.453142,283.840493 C223.032405,281.797999 224.619852,279.751248 226.215484,277.70024 C239.594023,260.359614 255.46636,240.376658 274.594725,222.661444 C281.377939,216.339219 288.437648,210.516089 295.265699,204.88983 C298.68186,202.071912 302.216519,199.157154 305.670044,196.216856 C308.589794,193.730959 311.713446,191.059896 314.78799,188.373934 C323.852559,180.4512 331.023294,171.772905 338.175881,162.825376 C351.525596,146.183909 362.763697,134.020463 385.923132,129.063566 C399.253631,126.208401 413.665559,123.781033 428.731896,125.32727 C431.702888,125.630558 434.825472,126.022172 438.553358,126.556384 C457.493834,129.291298 476.030776,135.00269 493.959214,140.525725 L499.167792,142.128363 C514.633392,146.877747 530.627429,151.78782 545.113018,159.086952 C564.969452,169.07311 580.034721,182.505045 589.894615,199.00817 C598.743539,213.82246 602.485302,235.322921 590.897045,249.960559 C576.304701,268.398343 548.01035,265.435698 536.521374,263.298848 C520.779279,260.378769 505.122587,254.891916 489.976184,249.597678 C483.55914,247.352282 476.926451,245.030267 470.37703,242.934919 C466.721738,241.764333 463.331198,240.751245 460.01005,239.837124 C437.625657,233.675588 418.627533,232.734863 401.921439,236.963869 C383.301229,241.674943 367.206841,253.021108 351.639824,263.99375 C349.789404,265.301968 347.934713,266.604865 346.075752,267.902441 C322.098574,284.636491 294.921948,303.599974 263.853034,311.977109 C248.216858,316.047357 231.954534,317.164099 215.906151,315.269646 C211.308212,310.597946 211.285794,303.47121 212.676812,298.758007 Z" id="Path_7"/>
                        <path d="M226.483803,303.800279 L226.653237,303.810959 C228.997608,303.936274 231.35299,304 233.719383,304 C269.153475,304 306.594135,289.855024 345.125993,261.89189 C347.852922,259.912832 350.567064,257.886781 353.285468,255.857526 C366.851913,245.727271 380.885101,235.252043 397.175278,230.504654 C415.162992,225.263836 435.707136,226.696063 461.83834,235.016009 C469.575828,237.478883 477.333563,240.350813 484.837679,243.126621 C497.672041,247.876145 510.94544,252.786943 524.527869,255.810533 C559.763756,263.654138 575.358081,249.88404 580.424052,243.599757 C585.987669,236.697086 588.571805,227.737391 587.894069,217.688307 C587.19926,208.211424 583.889058,199.114809 578.3333,191.414794 C567.169835,175.982843 549.339833,166.667494 533.373605,159.58753 C485.809527,138.508911 438.708995,128.61469 393.401907,130.155856 C365.59874,131.106402 354.566347,145.793936 341.792725,162.799094 C336.625877,170.006023 330.947374,176.830258 324.801368,183.218739 C304.620602,203.440088 284.440901,223.666777 264.262266,243.898806 L235.115349,273.117942 C231.230088,277.011976 226.828,281.422936 224.504942,286.905128 C222.366237,291.955837 222.112618,299.099883 226.36765,303.673183 L226.483803,303.800279 Z M225.286043,287.237285 C227.544098,281.907821 231.88438,277.557739 235.715294,273.717106 L264.861146,244.499038 C285.041912,224.270569 305.221968,204.04388 325.401314,183.818972 C331.574722,177.402761 337.279521,170.549682 342.471527,163.312815 C355.114077,146.480679 366.032449,131.942668 393.43281,131.007075 C438.604564,129.449889 485.585746,139.337701 533.029409,160.365055 C548.896533,167.39589 566.602923,176.642885 577.64917,191.913563 C591.110119,210.521832 588.904279,231.735024 579.764432,243.072151 C574.797563,249.235746 559.492022,262.723884 524.707959,254.98815 C511.182008,251.978445 497.938447,247.076192 485.127528,242.336279 C477.615953,239.559404 469.848627,236.681066 462.093024,234.212851 C435.795582,225.84164 415.091595,224.407277 396.938709,229.695088 C380.496148,234.486266 366.406482,245.00742 352.779297,255.1836 C350.06409,257.212855 347.35208,259.234634 344.630479,261.210487 C303.749988,290.878196 264.138654,304.934525 226.87169,302.978964 C222.997085,298.670535 223.273082,291.990014 225.286043,287.237285 Z" id="Path_8"/>
                    </g>
                </g>
            </g>
        </g>
    </g>
</svg>